<svg xmlns="http://www.w3.org/2000/svg" width="48" height="40" viewBox="0 0 48 40"><g transform="translate(-95 -478)"><g transform="translate(361.332 30.171)"><g transform="translate(-249.933 448.829)"><path d="M2.689,0H18.172a2.689,2.689,0,0,1,2.689,2.689v30.33a2.688,2.688,0,0,1-2.687,2.688H2.69A2.69,2.69,0,0,1,0,33.017V2.689A2.689,2.689,0,0,1,2.689,0Z" transform="translate(0.839 0.838)" fill="#f4f4f4"/><path d="M-225.914,486.212h-17.254a2.645,2.645,0,0,1-2.642-2.641v-32.1a2.645,2.645,0,0,1,2.642-2.642h17.254a2.645,2.645,0,0,1,2.642,2.642v32.1A2.644,2.644,0,0,1-225.914,486.212Zm-17.254-35.706a.967.967,0,0,0-.965.965v32.1a.966.966,0,0,0,.965.964h17.254a.966.966,0,0,0,.965-.964v-32.1a.967.967,0,0,0-.965-.965Z" transform="translate(245.81 -448.829)" fill="#ccc"/><g transform="translate(7.907 31.592)"><line x2="5.047" transform="translate(0.838 0.838)" fill="#fff"/><path d="M-228.136,497.607h-5.047a.839.839,0,0,1-.838-.838.838.838,0,0,1,.838-.838h5.047a.838.838,0,0,1,.838.838A.839.839,0,0,1-228.136,497.607Z" transform="translate(234.022 -495.93)" fill="#ccc"/></g></g><g transform="translate(-258.332 455.783)"><path d="M-236.778,459.2h-20.548a1.006,1.006,0,0,0-1.006,1.006v14.745a1.006,1.006,0,0,0,1.006,1.006h11.512l4.014,4.4a1,1,0,0,0,.742.327,1,1,0,0,0,.364-.068,1,1,0,0,0,.643-.938v-3.717h3.274a1.006,1.006,0,0,0,1.006-1.006V460.2A1.006,1.006,0,0,0-236.778,459.2Z" transform="translate(258.332 -459.196)" fill="#fff"/><g transform="translate(7.365 7.803)"><line x2="6.152" transform="translate(0.838 0.839)" fill="#fff"/><path d="M-240.36,472.506h-6.153a.838.838,0,0,1-.838-.838.839.839,0,0,1,.838-.838h6.153a.839.839,0,0,1,.838.838A.838.838,0,0,1-240.36,472.506Z" transform="translate(247.351 -470.829)" fill="#ccc"/></g><g style="mix-blend-mode:multiply;isolation:isolate"><line x2="20.548" transform="translate(1.006 1.006)" fill="#ededed"/><path d="M-236.778,461.208h-20.548a1.006,1.006,0,0,1-1.006-1.006,1.006,1.006,0,0,1,1.006-1.006h20.548a1.006,1.006,0,0,1,1.006,1.006A1.006,1.006,0,0,1-236.778,461.208Z" transform="translate(258.332 -459.196)" fill="#d0a97b"/></g><g transform="translate(0 14.745)" style="mix-blend-mode:multiply;isolation:isolate"><path d="M-241.058,487.914a1.007,1.007,0,0,1-.743-.327l-4.013-4.4h-11.512a1.006,1.006,0,0,1-1.006-1.006,1.006,1.006,0,0,1,1.006-1.006h11.956a1.009,1.009,0,0,1,.743.328l2.563,2.807v-2.129a1.006,1.006,0,0,1,1.006-1.006h4.28a1.006,1.006,0,0,1,1.006,1.006,1.006,1.006,0,0,1-1.006,1.006h-3.274v3.717a1.006,1.006,0,0,1-.643.938A1.009,1.009,0,0,1-241.058,487.914Z" transform="translate(258.332 -481.179)" fill="#4d6a96"/></g><g transform="translate(20.548)" style="mix-blend-mode:multiply;isolation:isolate"><path d="M-226.691,475.953a1.006,1.006,0,0,1-1.006-1.006V460.2a1.006,1.006,0,0,1,1.006-1.006,1.006,1.006,0,0,1,1.006,1.006v14.745A1.006,1.006,0,0,1-226.691,475.953Z" transform="translate(227.697 -459.196)" fill="#5294b4"/></g><g style="mix-blend-mode:multiply;isolation:isolate"><path d="M-257.326,475.953a1.006,1.006,0,0,1-1.006-1.006V460.2a1.006,1.006,0,0,1,1.006-1.006,1.006,1.006,0,0,1,1.006,1.006v14.745A1.006,1.006,0,0,1-257.326,475.953Z" transform="translate(258.332 -459.196)" fill="#c75d5f"/></g></g></g><rect width="48" height="40" transform="translate(95 478)" fill="none"/></g></svg>