<svg xmlns="http://www.w3.org/2000/svg" width="48" height="32" viewBox="0 0 48 32"><g transform="translate(-164 -731)" opacity="0.5"><rect width="48" height="32" transform="translate(164 731)" fill="none"/><g transform="translate(73 155)"><g transform="translate(107 582)" fill="none" stroke="#fff" stroke-width="2"><rect width="16" height="20" rx="3" stroke="none"/><rect x="1" y="1" width="14" height="18" rx="2" fill="none"/></g><g transform="translate(114 586)" fill="#fff" stroke="#fff" stroke-width="1"><rect width="2" height="8" rx="1" stroke="none"/><rect x="0.5" y="0.5" width="1" height="7" rx="0.5" fill="none"/></g><g transform="translate(112 596)" fill="#fff" stroke="#fff" stroke-width="1"><rect width="6" height="2" rx="1" stroke="none"/><rect x="0.5" y="0.5" width="5" height="1" rx="0.5" fill="none"/></g><g transform="translate(-3.586 27)"><g transform="translate(114.343 563.586) rotate(-45)" fill="#fff" stroke="#fff" stroke-width="1"><rect width="2" height="6" rx="1" stroke="none"/><rect x="0.5" y="0.5" width="1" height="5" rx="0.5" fill="none"/></g><g transform="translate(121.414 562.172) rotate(45)" fill="#fff" stroke="#fff" stroke-width="1"><rect width="2" height="6" rx="1" stroke="none"/><rect x="0.5" y="0.5" width="1" height="5" rx="0.5" fill="none"/></g></g></g></g></svg>