<svg xmlns="http://www.w3.org/2000/svg" width="48" height="40" viewBox="0 0 48 40"><g transform="translate(-81 -555)"><g transform="translate(482.301 -29.307)"><path d="M-361.984,609.581v-.013a1.027,1.027,0,0,0,.019-.191V586.341A1.034,1.034,0,0,0-363,585.307h-28.269a1.034,1.034,0,0,0-1.034,1.034v35.314a1.034,1.034,0,0,0,1.034,1.034h15.876c.019,0,.037,0,.057-.006s.039.006.058.006a1.035,1.035,0,0,0,.732-.3l12.277-12.277a1.03,1.03,0,0,0,.163-.221c.011-.019.021-.037.03-.055A1.027,1.027,0,0,0-361.984,609.581Z" fill="#fff"/><g transform="translate(-392.301 585.307)" style="mix-blend-mode:multiply;isolation:isolate"><path d="M-391.267,622.69a1.034,1.034,0,0,1-1.034-1.034V586.341a1.034,1.034,0,0,1,1.034-1.034,1.034,1.034,0,0,1,1.034,1.034v35.314A1.034,1.034,0,0,1-391.267,622.69Z" transform="translate(392.301 -585.307)" fill="#c75d5f"/></g><g transform="translate(-364.032 585.307)" style="mix-blend-mode:multiply;isolation:isolate"><path d="M-350.275,610.411a1.034,1.034,0,0,1-1.034-1.034V586.341a1.034,1.034,0,0,1,1.034-1.034,1.034,1.034,0,0,1,1.034,1.034v23.036A1.034,1.034,0,0,1-350.275,610.411Z" transform="translate(351.309 -585.307)" fill="#5294b4"/></g><g transform="translate(-392.301 585.307)" style="mix-blend-mode:multiply;isolation:isolate"><path d="M-363,587.376h-28.269a1.034,1.034,0,0,1-1.034-1.034,1.034,1.034,0,0,1,1.034-1.034H-363a1.034,1.034,0,0,1,1.034,1.034A1.035,1.035,0,0,1-363,587.376Z" transform="translate(392.301 -585.307)" fill="#d0a97b"/></g><g transform="translate(-392.301 620.621)" style="mix-blend-mode:multiply;isolation:isolate"><path d="M-375.391,638.584h-15.876a1.034,1.034,0,0,1-1.034-1.034,1.034,1.034,0,0,1,1.034-1.034h15.876a1.034,1.034,0,0,1,1.034,1.034A1.035,1.035,0,0,1-375.391,638.584Z" transform="translate(392.301 -636.515)" fill="#4d6a96"/></g><g transform="translate(-376.311 608.343)"><g transform="translate(0 0)"><path d="M-355.335,620.21h-8.989a3.289,3.289,0,0,0-3.29,3.289v8.989Z" transform="translate(368.648 -619.176)" fill="#f4f4f4"/><path d="M-368.08,633.058a1.021,1.021,0,0,1-.4-.079,1.033,1.033,0,0,1-.639-.955v-8.99a4.328,4.328,0,0,1,4.324-4.323h8.989a1.034,1.034,0,0,1,.956.639,1.034,1.034,0,0,1-.225,1.128l-12.278,12.278A1.035,1.035,0,0,1-368.08,633.058Zm3.29-12.279a2.258,2.258,0,0,0-2.255,2.254v6.493l8.747-8.747Z" transform="translate(369.114 -618.71)" fill="#ccc"/></g></g><g transform="translate(-386.815 590.926)"><path d="M-374.776,596.134a4.876,4.876,0,0,1,0,6.9,4.878,4.878,0,0,1-6.9,0,4.877,4.877,0,0,1,0-6.9A4.877,4.877,0,0,1-374.776,596.134Z" transform="translate(383.96 -593.843)" fill="#f4f4f4"/><path d="M-378.61,604.93a5.724,5.724,0,0,1-4.058-1.679,5.746,5.746,0,0,1,0-8.115,5.7,5.7,0,0,1,4.058-1.682,5.7,5.7,0,0,1,4.058,1.682h0a5.745,5.745,0,0,1,0,8.115A5.721,5.721,0,0,1-378.61,604.93Zm0-9.751a3.992,3.992,0,0,0-2.839,1.177,4.02,4.02,0,0,0,0,5.678,4.02,4.02,0,0,0,5.678,0,3.988,3.988,0,0,0,1.176-2.839,3.988,3.988,0,0,0-1.176-2.839h0A3.989,3.989,0,0,0-378.61,595.179Z" transform="translate(384.346 -593.455)" fill="#ccc"/><g transform="translate(8.472 8.474)"><line x2="5.216" y2="5.217" transform="translate(0.862 0.862)" fill="#d2fcff"/><path d="M-365.984,612.684a.857.857,0,0,1-.609-.253l-5.216-5.216a.863.863,0,0,1,0-1.219.862.862,0,0,1,1.219,0l5.216,5.217a.86.86,0,0,1,0,1.219A.857.857,0,0,1-365.984,612.684Z" transform="translate(372.062 -605.743)" fill="#ccc"/></g></g><g transform="translate(-386.413 608.515)"><path d="M-377.638,620.684H-382.9a.862.862,0,0,1-.862-.862.862.862,0,0,1,.862-.862h5.263a.862.862,0,0,1,.862.862A.862.862,0,0,1-377.638,620.684Z" transform="translate(383.763 -618.96)" fill="#ccc"/></g><g transform="translate(-386.413 613.333)"><path d="M-377.638,627.671H-382.9a.862.862,0,0,1-.862-.862.862.862,0,0,1,.862-.862h5.263a.862.862,0,0,1,.862.862A.861.861,0,0,1-377.638,627.671Z" transform="translate(383.763 -625.947)" fill="#ccc"/></g></g><rect width="48" height="40" transform="translate(81 555)" fill="none"/></g></svg>