<svg xmlns="http://www.w3.org/2000/svg" width="48" height="32" viewBox="0 0 48 32"><g transform="translate(-289 -731)" opacity="0.5"><rect width="48" height="32" transform="translate(289 731)" fill="none"/><g transform="translate(144 155)"><g transform="translate(159 584)" fill="none" stroke="#fff" stroke-width="2"><rect width="20" height="18" rx="3" stroke="none"/><rect x="1" y="1" width="18" height="16" rx="2" fill="none"/></g><g transform="translate(163 582)" fill="none" stroke="#fff" stroke-width="1"><rect width="2" height="4" rx="1" stroke="none"/><rect x="0.5" y="0.5" width="1" height="3" rx="0.5" fill="none"/></g><g transform="translate(173 582)" fill="none" stroke="#fff" stroke-width="1"><rect width="2" height="4" rx="1" stroke="none"/><rect x="0.5" y="0.5" width="1" height="3" rx="0.5" fill="none"/></g><g transform="translate(168 588)" fill="none" stroke="#fff" stroke-width="1"><rect width="2" height="10" rx="1" stroke="none"/><rect x="0.5" y="0.5" width="1" height="9" rx="0.5" fill="none"/></g><g transform="translate(172 592)" fill="none" stroke="#fff" stroke-width="1"><rect width="2" height="6" rx="1" stroke="none"/><rect x="0.5" y="0.5" width="1" height="5" rx="0.5" fill="none"/></g><g transform="translate(164 588)" fill="none" stroke="#fff" stroke-width="1"><rect width="2" height="6" rx="1" stroke="none"/><rect x="0.5" y="0.5" width="1" height="5" rx="0.5" fill="none"/></g></g></g></svg>