<svg xmlns="http://www.w3.org/2000/svg" width="48" height="32" viewBox="0 0 48 32"><g transform="translate(-47 -772)" opacity="0.5"><rect width="48" height="32" transform="translate(47 772)" fill="none"/><g transform="translate(9 196)"><g transform="translate(53 582)" fill="none" stroke-linejoin="round"><path d="M14,20H5a1,1,0,1,1,0-2H6.286l.428-3H3a3,3,0,0,1-3-3V3A3,3,0,0,1,3,0H17a3,3,0,0,1,3,3v9a3,3,0,0,1-3,3H13.286l.429,3H15a1,1,0,1,1,0,2Z" stroke="none"/><path d="M 11.69412517547607 17.99979972839355 L 11.30576992034912 15.28334999084473 C 11.22371006011963 14.70936965942383 11.39478969573975 14.12802028656006 11.77466011047363 13.68997955322266 C 12.15454006195068 13.25193023681641 12.70582008361816 13.00029945373535 13.28563976287842 13.00029945373535 L 17.00009918212891 13.00029945373535 C 17.55134010314941 13.00029945373535 17.99979972839355 12.55142974853516 17.99979972839355 11.99969959259033 L 17.99979972839355 2.999699831008911 C 17.99979972839355 2.44845986366272 17.55134010314941 1.99999988079071 17.00009918212891 1.99999988079071 L 2.999699831008911 1.99999988079071 C 2.44845986366272 1.99999988079071 1.99999988079071 2.44845986366272 1.99999988079071 2.999699831008911 L 1.99999988079071 11.99969959259033 C 1.99999988079071 12.55142974853516 2.44845986366272 13.00029945373535 2.999699831008911 13.00029945373535 L 6.714419841766357 13.00029945373535 C 7.29419994354248 13.00029945373535 7.845439910888672 13.25189018249512 8.225319862365723 13.68987941741943 C 8.605190277099609 14.12786960601807 8.776309967041016 14.70915031433105 8.694319725036621 15.28310012817383 L 8.306272506713867 17.99979972839355 L 11.69412517547607 17.99979972839355 M 15.00029945373535 19.99979972839355 L 14.00039958953857 19.99979972839355 L 6.00029993057251 19.99979972839355 L 5.000400066375732 19.99979972839355 C 4.447799682617188 19.99979972839355 3.999599933624268 19.55249977111816 3.999599933624268 18.99990081787109 C 3.999599933624268 18.44729995727539 4.447799682617188 18 5.000400066375732 18 L 6.28594970703125 18 L 6.714419841766357 15.00029945373535 L 2.999699831008911 15.00029945373535 C 1.34279990196228 15.00029945373535 -1.358032193365943e-07 13.65659999847412 -1.358032193365943e-07 11.99969959259033 L -1.358032193365943e-07 2.999699831008911 C -1.358032193365943e-07 1.34279990196228 1.34279990196228 -1.358032193365943e-07 2.999699831008911 -1.358032193365943e-07 L 17.00009918212891 -1.358032193365943e-07 C 18.6569995880127 -1.358032193365943e-07 19.99979972839355 1.34279990196228 19.99979972839355 2.999699831008911 L 19.99979972839355 11.99969959259033 C 19.99979972839355 13.65659999847412 18.6569995880127 15.00029945373535 17.00009918212891 15.00029945373535 L 13.28563976287842 15.00029945373535 L 13.71448993682861 18 L 15.00029945373535 18 C 15.55200004577637 18 16.00020027160645 18.44729995727539 16.00020027160645 18.99990081787109 C 16.00020027160645 19.55249977111816 15.55200004577637 19.99979972839355 15.00029945373535 19.99979972839355 Z" stroke="none" fill="#fff"/></g><g transform="translate(57 586)" fill="#fff" stroke="#fff" stroke-width="1"><rect width="10" height="2" rx="1" stroke="none"/><rect x="0.5" y="0.5" width="9" height="1" rx="0.5" fill="none"/></g><g transform="translate(57 590)" fill="#fff" stroke="#fff" stroke-width="1"><rect width="6" height="2" rx="1" stroke="none"/><rect x="0.5" y="0.5" width="5" height="1" rx="0.5" fill="none"/></g></g></g></svg>