<svg xmlns="http://www.w3.org/2000/svg" width="48" height="40" viewBox="0 0 48 40"><g transform="translate(-77 -652)"><g transform="translate(81 666.207)"><rect width="38.949" height="23.062" transform="translate(0.961 0.961)" fill="#f4f4f4"/><path d="M-129.623,598.447h-38.949a.961.961,0,0,1-.961-.961V574.424a.961.961,0,0,1,.961-.961h38.949a.96.96,0,0,1,.961.961v23.062A.961.961,0,0,1-129.623,598.447Zm-37.988-1.922h37.027v-21.14h-37.027Z" transform="translate(169.533 -573.463)" fill="#ccc"/></g><path d="M-135.324,557.583H-158.13a1.153,1.153,0,0,0-1.153,1.153v35.077a1.153,1.153,0,0,0,1.153,1.153h22.806a1.153,1.153,0,0,0,1.153-1.153V558.736A1.153,1.153,0,0,0-135.324,557.583Z" transform="translate(248.162 96.417)" fill="#fff"/><g transform="translate(88.879 654)" style="mix-blend-mode:multiply;isolation:isolate"><path d="M-158.13,594.966a1.153,1.153,0,0,1-1.153-1.153V558.736a1.153,1.153,0,0,1,1.153-1.153,1.153,1.153,0,0,1,1.153,1.153v35.077A1.153,1.153,0,0,1-158.13,594.966Z" transform="translate(159.283 -557.583)" fill="#c75d5f"/></g><g transform="translate(111.685 654)"><path d="M-128.463,594.966a1.153,1.153,0,0,1-1.153-1.153V558.736a1.153,1.153,0,0,1,1.153-1.153,1.153,1.153,0,0,1,1.153,1.153v35.077A1.153,1.153,0,0,1-128.463,594.966Z" transform="translate(129.616 -557.583)" fill="#5294b4"/></g><g transform="translate(88.879 654)" style="mix-blend-mode:multiply;isolation:isolate"><path d="M-135.324,559.889H-158.13a1.153,1.153,0,0,1-1.153-1.153,1.153,1.153,0,0,1,1.153-1.153h22.806a1.153,1.153,0,0,1,1.153,1.153A1.153,1.153,0,0,1-135.324,559.889Z" transform="translate(159.283 -557.583)" fill="#d0a97b"/></g><g transform="translate(88.879 689.077)" style="mix-blend-mode:multiply;isolation:isolate"><path d="M-135.324,605.519H-158.13a1.153,1.153,0,0,1-1.153-1.153,1.153,1.153,0,0,1,1.153-1.153h22.806a1.153,1.153,0,0,1,1.153,1.153A1.153,1.153,0,0,1-135.324,605.519Z" transform="translate(159.283 -603.213)" fill="#4d6a96"/></g><g transform="translate(96.984 661.659)"><path d="M-140.8,569.468h-6.982a.96.96,0,0,1-.961-.961.961.961,0,0,1,.961-.961h6.982a.961.961,0,0,1,.961.961A.961.961,0,0,1-140.8,569.468Z" transform="translate(148.74 -567.546)" fill="#ccc"/></g><g transform="translate(96.984 668.385)"><path d="M-140.8,578.218h-6.982a.96.96,0,0,1-.961-.961.961.961,0,0,1,.961-.961h6.982a.961.961,0,0,1,.961.961A.961.961,0,0,1-140.8,578.218Z" transform="translate(148.74 -576.296)" fill="#ccc"/></g><g transform="translate(96.984 679.516)"><rect width="6.982" height="8.601" transform="translate(0.961 0.961)" fill="#f4f4f4"/><path d="M-146.818,600.336V592.7h5.06v7.64h1.922v-8.6a.961.961,0,0,0-.961-.961h-6.982a.961.961,0,0,0-.961.961v8.6Z" transform="translate(148.74 -590.775)" fill="#ccc"/></g><rect width="48" height="40" transform="translate(77 652)" fill="none"/></g></svg>