<svg xmlns="http://www.w3.org/2000/svg" width="48" height="40" viewBox="0 0 48 40"><g transform="translate(-238 -305)"><rect width="48" height="40" transform="translate(238 305)" fill="none"/><g transform="translate(536.139 -241.937)"><g transform="translate(-281.556 579.619)"><g transform="translate(0 0)"><path d="M-263.994,595.5H-265.8l2.3,5.054h-11.507l2.3-5.054h-1.81l-2.524,5.536a.825.825,0,0,0,.057.787.823.823,0,0,0,.693.378h14.069a.823.823,0,0,0,.693-.378.823.823,0,0,0,.056-.787Z" transform="translate(277.112 -595.501)" fill="#ccc"/><path d="M-264.715,595.5l2.3,5.054h-11.507l2.3-5.054Z" transform="translate(276.023 -595.501)" fill="#f4f4f4"/></g></g><g transform="translate(-290.139 548.937)"><path d="M-258.594,562.561h-30.557a.988.988,0,0,0-.988.988v19.728a.988.988,0,0,0,.988.988h30.557a.988.988,0,0,0,.988-.988V563.549A.988.988,0,0,0-258.594,562.561Z" transform="translate(290.139 -553.584)" fill="#fff"/><g transform="translate(10.415 21.048)"><path d="M-263.453,582.527h-10.056a.824.824,0,0,1-.824-.824.824.824,0,0,1,.824-.824h10.056a.823.823,0,0,1,.824.824A.824.824,0,0,1-263.453,582.527Z" transform="translate(274.333 -580.88)" fill="#ccc"/></g><g transform="translate(30.557 8.977)" style="mix-blend-mode:multiply;isolation:isolate"><path d="M-242.777,584.266a.988.988,0,0,1-.988-.988V563.549a.988.988,0,0,1,.988-.988.988.988,0,0,1,.988.988v19.728A.988.988,0,0,1-242.777,584.266Z" transform="translate(243.765 -562.561)" fill="#5294b4"/></g><g transform="translate(0 8.977)" style="mix-blend-mode:multiply;isolation:isolate"><path d="M-289.151,584.266a.988.988,0,0,1-.988-.988V563.549a.988.988,0,0,1,.988-.988.988.988,0,0,1,.988.988v19.728A.988.988,0,0,1-289.151,584.266Z" transform="translate(290.139 -562.561)" fill="#c75d5f"/></g><g transform="translate(0 8.977)" style="mix-blend-mode:multiply;isolation:isolate"><path d="M-258.594,564.538h-30.557a.988.988,0,0,1-.988-.988.988.988,0,0,1,.988-.988h30.557a.988.988,0,0,1,.988.988A.988.988,0,0,1-258.594,564.538Z" transform="translate(290.139 -562.561)" fill="#d0a97b"/></g><g transform="translate(0 28.705)" style="mix-blend-mode:multiply;isolation:isolate"><path d="M-258.594,594.478h-30.557a.988.988,0,0,1-.988-.988.988.988,0,0,1,.988-.988h30.557a.988.988,0,0,1,.988.988A.988.988,0,0,1-258.594,594.478Z" transform="translate(290.139 -592.501)" fill="#4d6a96"/></g><g transform="translate(7.755)"><path d="M-261.394,558.051a7.863,7.863,0,0,1-7.863,7.862,7.863,7.863,0,0,1-7.863-7.862,7.863,7.863,0,0,1,7.863-7.864A7.863,7.863,0,0,1-261.394,558.051Z" transform="translate(277.944 -549.363)" fill="#fbb"/><path d="M-269.684,566.311a8.7,8.7,0,0,1-8.686-8.687,8.7,8.7,0,0,1,8.686-8.687A8.7,8.7,0,0,1-261,557.624,8.7,8.7,0,0,1-269.684,566.311Zm0-15.726a7.047,7.047,0,0,0-7.039,7.04,7.047,7.047,0,0,0,7.039,7.039,7.047,7.047,0,0,0,7.04-7.039A7.047,7.047,0,0,0-269.684,550.584Z" transform="translate(278.37 -548.937)" fill="#f44242"/><g transform="translate(4.441 5.137)"><path d="M-270.38,560.773l2.661,2.662,4.183-5.45" transform="translate(271.204 -557.16)" fill="#fbb"/><path d="M-268.146,563.832a.825.825,0,0,1-.582-.241l-2.661-2.662a.824.824,0,0,1,0-1.165.824.824,0,0,1,1.165,0l2,2,3.61-4.7a.822.822,0,0,1,1.155-.152.824.824,0,0,1,.152,1.154l-4.183,5.451a.824.824,0,0,1-.6.32Z" transform="translate(271.63 -556.733)" fill="#f44242"/></g></g></g></g></g></svg>